<svg xmlns="http://www.w3.org/2000/svg" viewBox="0 0 24 24">
  <path d="M2.5 6.5C5.5 5.5 6.5 7.5 9.5 6.5C12.5 5.5 13.5 7.5 16.5 6.5C18.5 6 21 6.8 21.5 7" stroke="#D8584E" stroke-width="2.8" stroke-linecap="round" fill="none"/>
  <path d="M2.5 6.5C5.5 5.5 6.5 7.5 9.5 6.5C12.5 5.5 13.5 7.5 16.5 6.5C18.5 6 21 6.8 21.5 7" stroke="#F8C08A" stroke-width="1.2" stroke-linecap="round" fill="none" opacity="0.7"/>
  <path d="M2.5 12C5 11 6.5 13 9.5 12C12.5 11 13.5 13 16.5 12C18.5 11.5 21 12.3 21.5 12.5" stroke="#F8C08A" stroke-width="2.8" stroke-linecap="round" fill="none"/>
  <path d="M2.5 12C5 11 6.5 13 9.5 12C12.5 11 13.5 13 16.5 12C18.5 11.5 21 12.3 21.5 12.5" stroke="#D8584E" stroke-width="1.2" stroke-linecap="round" fill="none" opacity="0.5"/>
  <path d="M2.5 17.5C5.5 16.5 6.5 18.5 9.5 17.5C12.5 16.5 13.5 18.5 16.5 17.5C18.5 17 21 17.8 21.5 18" stroke="#D8584E" stroke-width="2.8" stroke-linecap="round" fill="none"/>
  <path d="M2.5 17.5C5.5 16.5 6.5 18.5 9.5 17.5C12.5 16.5 13.5 18.5 16.5 17.5C18.5 17 21 17.8 21.5 18" stroke="#F8C08A" stroke-width="1.2" stroke-linecap="round" fill="none" opacity="0.7"/>
</svg>