<svg xmlns="http://www.w3.org/2000/svg" viewBox="0 0 24 24">
  <polygon points="12,0.8 13.7,4.7 17.2,2.4 17.1,6.6 21.2,5.3 18.6,8.7 23.1,9.2 19.3,11.4 22.7,14.3 18.3,14.6 20.2,18.8 16.4,16.8 16.2,21.2 13,18.3 12,23.2 11,18.3 7.8,21.2 7.6,16.8 3.8,18.8 5.7,14.6 1.3,14.3 4.7,11.4 0.9,9.2 5.4,8.7 2.8,5.3 6.9,6.6 6.8,2.4 10.3,4.7" fill="#1D2142"/>
  <polygon points="12,2.1 13.4,5.3 16.3,3.5 16.2,6.9 19.7,5.8 17.5,8.5 21.1,8.9 18,10.8 20.8,13.1 17.2,13.4 18.7,16.8 15.6,15.2 15.4,18.8 12.8,16.5 12,20.3 11.2,16.5 8.6,18.8 8.4,15.2 5.3,16.8 6.8,13.4 3.2,13.1 6,10.8 2.9,8.9 6.5,8.5 4.3,5.8 7.8,6.9 7.7,3.5 10.6,5.3" fill="#D8584E"/>
  <polygon points="12,5.6 13,7.7 14.9,6.8 14.6,8.9 16.9,8.8 15.3,10.3 17.2,11.4 14.9,11.9 15.9,13.8 13.9,13.1 13.7,15.3 12,14.1 10.3,15.3 10.1,13.1 8.1,13.8 9.1,11.9 6.8,11.4 8.7,10.3 7.1,8.8 9.4,8.9 9.1,6.8 11,7.7" fill="#F8C08A"/>
</svg>
