<svg xmlns="http://www.w3.org/2000/svg" viewBox="0 0 24 24">
  <path d="M9 20H15V18.5C17.8 18.5 20.5 16.3 20.5 13.5C20.5 12 19.7 10.7 18.5 10C18.8 9.4 19 8.8 19 8.2C19 6.4 17.6 5 15.8 5C15.5 5 15.2 5.1 14.9 5.2C14.3 4.1 13.1 3.3 11.8 3.3C10.2 3.3 8.9 4.4 8.6 5.9C8.3 5.8 8 5.7 7.7 5.7C6 5.7 4.6 7.1 4.6 8.8C4.6 9.5 4.9 10.2 5.3 10.7C4.3 11.4 3.7 12.5 3.7 13.8C3.7 16.4 6.1 18.5 9 18.5V20Z" fill="#A29BFE"/>
  <path d="M12 7.5C12 9.5 11 11.5 12 14" stroke="#7B74E8" stroke-width="1" stroke-linecap="round" fill="none"/>
  <path d="M9 10C10 9.5 10.8 10.5 10 12" stroke="#7B74E8" stroke-width="1" stroke-linecap="round" fill="none"/>
  <path d="M15.5 10.5C14.5 11 14.8 12.5 15.5 13" stroke="#7B74E8" stroke-width="1" stroke-linecap="round" fill="none"/>
  <path d="M9.5 14.5C10.5 14 11.5 14.8 11 16" stroke="#7B74E8" stroke-width="1" stroke-linecap="round" fill="none"/>
</svg>