<svg xmlns="http://www.w3.org/2000/svg" viewBox="0 0 24 24" aria-label="brain icon">
  <path d="M10.4 20.7C9.1 20.7 8 19.8 7.7 18.6C7.4 18.7 7 18.8 6.6 18.8C4.4 18.8 2.6 17 2.6 14.9C2.6 13.8 3 12.7 3.7 12C3.3 11.4 3.1 10.7 3.1 9.9C3.1 7.7 4.9 5.9 7.1 5.9C7.4 5.9 7.8 5.9 8.1 6C8.8 4.4 10.4 3.3 12.2 3.3C13.4 3.3 14.4 3.7 15.2 4.4C15.6 4.2 16.1 4.1 16.6 4.1C18.4 4.1 19.8 5.6 19.8 7.3C19.8 7.7 19.7 8.1 19.6 8.4C20.9 9.2 21.7 10.6 21.7 12.2C21.7 14.2 20.4 15.9 18.6 16.5C18.6 18.8 16.7 20.7 14.4 20.7H10.4Z" fill="#EA97A7"/>
  <path d="M4 13.2C4.9 12.6 6.1 12.5 7.1 12.9L8.8 13.6C10.3 14.2 12 14.2 13.5 13.6L14.7 13.1C16.4 12.4 18.4 12.9 19.6 14.2C18.9 16 17.2 17.2 15.2 17.2H8.8C6.6 17.2 4.8 15.6 4 13.2Z" fill="#E18595"/>
  <path d="M7.1 7.3C8.1 6.8 9.3 6.7 10.3 7L11.2 7.3C12.7 7.8 14.3 7.5 15.6 6.5L16 6.2C17 5.5 18.3 5.3 19.4 5.7C19.6 6.1 19.8 6.7 19.8 7.3C19.8 7.7 19.7 8.1 19.6 8.4C20.9 9.2 21.7 10.6 21.7 12.2C21.7 12.3 21.7 12.4 21.7 12.5C20.9 13 20 13.1 19.2 12.9L17.8 12.5C16.5 12.2 15.2 12.5 14.2 13.3C12.7 14.5 10.5 14.8 8.7 14L6.1 12.9C5 12.4 3.8 12.4 2.8 12.8C2.7 12.3 2.6 11.7 2.6 11.1C2.6 10.2 2.9 9.3 3.4 8.5C4.4 8.5 5.4 8.3 6.2 7.8L7.1 7.3Z" fill="#F0A5B3" opacity="0.75"/>

  <path d="M6.3 10.1C6.7 10.8 7.4 11.2 8.2 11.2" stroke="#C87487" stroke-width="0.9" stroke-linecap="round"/>
  <path d="M8.2 8.1C8.9 8.4 9.3 9 9.3 9.7" stroke="#C87487" stroke-width="0.9" stroke-linecap="round"/>
  <path d="M10.7 9.2C11.2 9.9 11.9 10.3 12.7 10.3" stroke="#C87487" stroke-width="0.9" stroke-linecap="round"/>
  <path d="M13.8 7C13.2 7.5 12.8 8.2 12.8 9" stroke="#C87487" stroke-width="0.9" stroke-linecap="round"/>
  <path d="M16.1 8C15.8 8.8 15.9 9.5 16.4 10.1" stroke="#C87487" stroke-width="0.9" stroke-linecap="round"/>
  <path d="M16.8 12.2C16 12.2 15.3 12.5 14.8 13.1" stroke="#C87487" stroke-width="0.9" stroke-linecap="round"/>
  <path d="M13 13.8C12 13.9 11.2 14.4 10.7 15.2" stroke="#C87487" stroke-width="0.9" stroke-linecap="round"/>
  <path d="M8.4 13.6C8.2 14.4 7.7 15.1 7 15.6" stroke="#C87487" stroke-width="0.9" stroke-linecap="round"/>

  <path d="M13.9 20.6L15.7 22.7" stroke="#EA97A7" stroke-width="1.9" stroke-linecap="round"/>
</svg>
