<svg xmlns="http://www.w3.org/2000/svg" viewBox="0 0 24 24" aria-label="butter icon">
  <!-- back cube -->
  <path d="M11.1 6.1L15.4 4.2L21.1 6.1L16.8 8L11.1 6.1Z" fill="#FBDFCB"/>
  <path d="M16.8 8L21.1 6.1V12.5L16.8 14.4V8Z" fill="#F8C08A"/>
  <path d="M11.1 6.1L16.8 8V14.4L11.1 12.5V6.1Z" fill="#FFD9B0"/>

  <!-- front slice -->
  <path d="M2.4 11.2H10.2L13.2 16.2H5.5C3.8 16.2 2.4 14.9 2.4 13.2V11.2Z" fill="#F8C08A"/>
  <path d="M2.4 11.2L5.5 9.5H13.1L10.2 11.2H2.4Z" fill="#FBDFCB"/>
  <path d="M10.2 11.2L13.1 9.5L16.2 14.5L13.2 16.2L10.2 11.2Z" fill="#E8A85A"/>

  <!-- brand-forward line details -->
  <path d="M5.2 9.7L8.7 15.8" stroke="#D8584E" stroke-opacity="0.22" stroke-width="0.9" stroke-linecap="round"/>
  <path d="M11.1 6.1L16.8 8M16.8 8L21.1 6.1M16.8 8V14.4" stroke="#D8584E" stroke-opacity="0.34" stroke-width="0.9" stroke-linecap="round" stroke-linejoin="round"/>

  <!-- soft highlights -->
  <ellipse cx="15.2" cy="6" rx="0.9" ry="0.6" fill="#FFFFFF" opacity="0.45"/>
  <ellipse cx="8.1" cy="11.4" rx="0.8" ry="0.55" fill="#FFFFFF" opacity="0.4"/>

  <!-- little sparkle ticks -->
  <path d="M9 7.3L8.5 6.2M8.1 8L7 7.5" stroke="#F8C08A" stroke-width="0.9" stroke-linecap="round"/>
</svg>
