<svg xmlns="http://www.w3.org/2000/svg" viewBox="0 0 24 24" aria-label="moon icon">
  <defs>
    <mask id="moon-crescent-cut">
      <rect width="24" height="24" fill="black"/>
      <circle cx="11.5" cy="12" r="9" fill="white"/>
      <circle cx="15" cy="10.8" r="7.4" fill="black"/>
    </mask>
  </defs>

  <circle cx="11.5" cy="12" r="9" fill="#F8C08A" mask="url(#moon-crescent-cut)"/>
  <circle cx="10.9" cy="11.4" r="8.2" fill="#FBDFCB" opacity="0.35" mask="url(#moon-crescent-cut)"/>

  <path d="M3.1 6L3.7 7.2L5 7.4L4.1 8.2L4.3 9.5L3.1 8.9L1.9 9.5L2.1 8.2L1.2 7.4L2.5 7.2L3.1 6Z" fill="#F8C08A"/>
  <path d="M18.2 3.8L18.7 4.8L19.8 5L19 5.8L19.2 6.9L18.2 6.4L17.2 6.9L17.4 5.8L16.6 5L17.7 4.8L18.2 3.8Z" fill="#F8C08A"/>
  <path d="M15.4 9.3L16.1 10.7L17.6 10.9L16.5 11.9L16.8 13.4L15.4 12.7L14 13.4L14.3 11.9L13.2 10.9L14.7 10.7L15.4 9.3Z" fill="#F8C08A"/>

  <circle cx="9.8" cy="7.5" r="0.35" fill="#80B9B9"/>
  <circle cx="11.3" cy="14.2" r="0.4" fill="#80B9B9"/>
  <circle cx="17.1" cy="9.1" r="0.38" fill="#80B9B9"/>
</svg>
