<svg xmlns="http://www.w3.org/2000/svg" viewBox="0 0 24 24" aria-label="muscle icon">
  <path d="M2.7 16.1C2.7 15.1 2.9 14.1 3.2 13.2L5.2 6.5L8.6 4.3C9 4.1 9.4 4.1 9.7 4.5L12.5 7.5C12.8 7.8 12.8 8.3 12.5 8.6L10.2 11.1C9.9 11.4 9.5 11.4 9.2 11.2L8.1 10.1V12.3C8.8 11.8 9.8 11.4 11 11.4C12.7 11.4 14 12.2 14.9 13.2C15.8 11.7 17.4 10.4 19.6 10.4C21.9 10.4 23.3 12 23.3 15C23.3 17.5 22.6 19.7 21.4 21.6C21.2 21.9 20.9 22 20.6 22H20C18.6 22 17 21.6 15 20.5C14.4 20.9 13.6 21.5 12.6 21.5C11.6 21.5 10.8 20.9 10.3 20.5C8.9 21.2 7.4 21.5 6.2 21.5C4.6 21.5 3.6 20.7 3.1 19.5C2.8 18.7 2.7 17.4 2.7 16.1Z" fill="#F8C08A"/>

  <path d="M14.8 13.3C15.8 14.3 16.4 15.7 16.4 17.1C16.4 18.1 16.1 19.1 15.5 20" stroke="#E8A85A" stroke-width="1" stroke-linecap="round"/>
  <path d="M5.8 17C7.1 17.8 8.9 18.4 10.7 18.6" stroke="#E8A85A" stroke-width="0.9" stroke-linecap="round"/>
  <path d="M17.2 15.6C17.9 16.4 18.6 17 19.6 17.6" stroke="#E8A85A" stroke-width="0.9" stroke-linecap="round"/>

  <path d="M14.5 8.1L15.6 9.2" stroke="#2A2E45" stroke-width="0.65" stroke-linecap="round"/>
  <path d="M16.8 7.6V9.1" stroke="#2A2E45" stroke-width="0.65" stroke-linecap="round"/>
  <path d="M18 9.2L19.1 8.1" stroke="#2A2E45" stroke-width="0.65" stroke-linecap="round"/>
</svg>
