<svg xmlns="http://www.w3.org/2000/svg" viewBox="0 0 24 24" aria-label="muscle icon">
  <path d="M4.1 6.8C5.8 6.5 7.5 7.3 8.4 9L9.6 11.2C10.7 10.2 12.3 10.1 13.7 10.9L15.3 11.9C17.4 10.4 19.1 8.2 20 6C20.2 5.5 20.7 5.2 21.2 5.3C21.8 5.4 22.1 6 22 6.6L21 12.5C20.3 16.5 17.9 20.1 14.3 22C13.8 22.2 13.2 22.2 12.7 22C11.2 21.2 9.7 20.8 8.3 20.4C6.2 19.8 4.3 18.6 3 16.9C2.3 16 2 14.8 2 13.6V9C2 7.9 2.9 7 4.1 6.8Z" fill="#EEA1A1"/>
  <path d="M3 8.8C4.6 8.7 6.1 9.4 7.2 10.7L10.5 14.6C11.6 15.8 12.9 16.7 14.4 17.2C15.8 17.7 17.1 18.5 18.1 19.6C16.9 20.7 15.7 21.5 14.3 22.2C13.8 22.4 13.2 22.4 12.7 22.1C11.2 21.3 9.7 20.9 8.3 20.5C6.2 19.9 4.3 18.7 3 17V8.8Z" fill="#F08B95"/>
  <path d="M2.6 9.7C4 9.3 5.5 9.5 6.8 10.2L9.9 11.8C12.2 13 14.2 14.7 15.7 16.8L16.8 18.3C16.2 18.5 15.5 18.5 14.9 18.3C13.3 17.7 11.9 16.8 10.7 15.5L7.5 12.1C6.4 10.9 4.9 10.2 3.3 10.1L2.6 9.7Z" fill="#D8584E" opacity="0.22"/>

  <path d="M20.1 6.2C19.6 6.5 19.1 6.8 18.7 7.2" stroke="#F08B95" stroke-width="0.48" stroke-linecap="round"/>
  <path d="M19.6 6.9C19.1 7.2 18.6 7.7 18.2 8.1" stroke="#F08B95" stroke-width="0.48" stroke-linecap="round"/>
  <path d="M19.2 7.7C18.7 8.1 18.3 8.5 17.9 9" stroke="#F08B95" stroke-width="0.48" stroke-linecap="round"/>
  <path d="M18.9 8.6C18.5 9 18.1 9.4 17.8 9.9" stroke="#F08B95" stroke-width="0.48" stroke-linecap="round"/>

  <path d="M10 11.8L14.9 16.9" stroke="#D8584E" stroke-opacity="0.34" stroke-width="0.72" stroke-linecap="round"/>
  <path d="M8.5 10.4C8.7 10.8 8.8 11.1 8.8 11.5" stroke="#D8584E" stroke-opacity="0.34" stroke-width="0.58" stroke-linecap="round"/>
  <path d="M15.7 12.4C15.4 12.8 15.2 13.1 15.1 13.5" stroke="#D8584E" stroke-opacity="0.34" stroke-width="0.58" stroke-linecap="round"/>

  <path d="M3.1 9.2C4.4 9.2 5.6 9.7 6.5 10.7L7.1 11.4" stroke="#FBDFCB" stroke-width="0.82" stroke-linecap="round"/>
  <path d="M12.8 17.2C13.5 17.8 14.2 18.2 15 18.5" stroke="#FBDFCB" stroke-width="0.82" stroke-linecap="round"/>
</svg>
