<svg xmlns="http://www.w3.org/2000/svg" viewBox="0 0 24 24" aria-label="muscle icon">
  <path d="M3.2 8.2C3.2 6.7 4.4 5.4 5.9 5.3C8.5 5.1 10 6.5 11.1 8.6L12.3 10.8C13.9 9.9 15.5 10.1 16.8 11L18.1 9.9C19.4 8.8 20.2 7.3 20.8 5.7C21 5.2 21.5 5 21.9 5.2C22.4 5.4 22.7 5.9 22.6 6.4L21.5 13.3C20.9 17 19.1 20.4 16.2 22.7C15.7 23.1 15 23.2 14.4 23C12.9 22.4 11.5 21.9 10 21.5C7.2 20.8 4.8 19.2 3.5 16.7C3.3 16.3 3.2 15.8 3.2 15.4V8.2Z" fill="#EAA2A5"/>

  <path d="M3.4 9.2C5.3 9.2 7.1 9.9 8.5 11.1L10.7 13.1C12.1 14.4 13.8 15.3 15.6 15.8L17.4 16.3C16.8 17.9 15.9 19.4 14.6 20.7C13.2 20 11.8 19.5 10.4 19.1C7.8 18.4 5.6 17 4.2 14.7C3.7 13.9 3.4 13 3.4 12.1V9.2Z" fill="#F08492"/>

  <path d="M4.2 8.7C5.7 8.7 7.2 9.2 8.4 10.1L10.8 11.9C12.5 13.2 14 14.8 15.3 16.5L16.8 18.5" stroke="#D8584E" stroke-opacity="0.2" stroke-width="1.2" stroke-linecap="round"/>

  <path d="M18.1 6.7C18.7 6.2 19.3 5.8 19.9 5.5" stroke="#F08492" stroke-width="0.5" stroke-linecap="round"/>
  <path d="M18.4 7.5C19 7 19.5 6.6 20 6.3" stroke="#F08492" stroke-width="0.5" stroke-linecap="round"/>
  <path d="M18.7 8.3C19.2 7.8 19.6 7.5 20 7.2" stroke="#F08492" stroke-width="0.5" stroke-linecap="round"/>
  <path d="M19.1 9.1C19.5 8.8 19.8 8.5 20.2 8.3" stroke="#F08492" stroke-width="0.5" stroke-linecap="round"/>

  <path d="M6.1 8.1C7.3 8.2 8.4 8.8 9.2 9.8" stroke="#FBDFCB" stroke-width="0.95" stroke-linecap="round"/>
  <path d="M12.9 17.3C13.7 17.9 14.7 18.3 15.7 18.5" stroke="#FBDFCB" stroke-width="0.95" stroke-linecap="round"/>

  <path d="M10.6 10.7C10.8 11 10.9 11.4 10.9 11.8" stroke="#D8584E" stroke-opacity="0.35" stroke-width="0.6" stroke-linecap="round"/>
  <path d="M15.6 12.3C15.3 12.6 15.1 13 15 13.4" stroke="#D8584E" stroke-opacity="0.35" stroke-width="0.6" stroke-linecap="round"/>
</svg>
