<svg xmlns="http://www.w3.org/2000/svg" viewBox="0 0 24 24" aria-label="muscle icon">
  <path d="M3 8.6C3 6.8 4.4 5.4 6.2 5.4C8.5 5.4 10.1 6.6 11.2 8.7L12.2 10.7C13.9 9.8 15.4 9.9 16.6 10.8L18 9.6C19.3 8.5 20.2 7.1 20.8 5.5C21 5.1 21.4 4.9 21.8 5.1C22.3 5.3 22.6 5.8 22.5 6.3L21.5 13.1C20.9 17.2 18.9 20.8 15.6 23C15 23.4 14.2 23.5 13.5 23.2C12.4 22.7 11.2 22.3 10 22C7 21.2 4.5 19.2 3.4 16.3C3.1 15.7 3 15 3 14.3V8.6Z" fill="#E9A0A5"/>

  <path d="M3.2 10.4C5.1 10.5 6.8 11.2 8.3 12.4L10.3 14.1C11.7 15.3 13.3 16.2 15 16.8L17.8 17.8C17.2 18.9 16.5 20 15.6 21C15 21.4 14.2 21.5 13.5 21.2C12.4 20.7 11.2 20.3 10 20C7 19.2 4.5 17.2 3.4 14.3C3.3 14 3.2 13.7 3.2 13.4V10.4Z" fill="#EF8796"/>

  <path d="M4.4 9.7C6.2 9.9 7.8 10.7 9.1 12L11.2 13.9C12.8 15.4 14.7 16.5 16.8 17.1" stroke="#F6A8B3" stroke-width="0.95" stroke-linecap="round"/>
  <path d="M10.3 11.3C12.2 12.8 13.8 14.6 15.1 16.7" stroke="#D8584E" stroke-opacity="0.2" stroke-width="1.1" stroke-linecap="round"/>

  <path d="M18.2 6.6L20 5.4" stroke="#F08B95" stroke-width="0.55" stroke-linecap="round"/>
  <path d="M18.5 7.4L20.1 6.3" stroke="#F08B95" stroke-width="0.55" stroke-linecap="round"/>
  <path d="M18.8 8.2L20.3 7.2" stroke="#F08B95" stroke-width="0.55" stroke-linecap="round"/>
  <path d="M19.2 9L20.5 8.2" stroke="#F08B95" stroke-width="0.55" stroke-linecap="round"/>

  <path d="M6.4 8.2C7.5 8.3 8.5 8.9 9.2 9.8" stroke="#FBDFCB" stroke-width="0.92" stroke-linecap="round"/>
  <path d="M13.1 17.3C13.9 17.8 14.8 18.2 15.8 18.5" stroke="#FBDFCB" stroke-width="0.92" stroke-linecap="round"/>

  <path d="M10.8 10.7C11 11 11.1 11.4 11.1 11.8" stroke="#D8584E" stroke-opacity="0.35" stroke-width="0.58" stroke-linecap="round"/>
  <path d="M15.6 12.2C15.4 12.5 15.2 12.9 15.1 13.2" stroke="#D8584E" stroke-opacity="0.35" stroke-width="0.58" stroke-linecap="round"/>
</svg>
