<svg xmlns="http://www.w3.org/2000/svg" viewBox="0 0 24 24">
  <path d="M6 16C6 13.5 7.5 11.5 9.5 11C9.5 9.5 10.5 8 12 7.5C13.5 7 15 7.8 15.5 9L16 10C17 9.8 18.5 10.5 19 12C19.5 13.5 18.8 15 17.5 15.5L16.5 16C15.5 17 14 18 12 18C9.5 18 6 17.5 6 16Z" fill="#D8584E"/>
  <path d="M4 14.5C4 13 4.8 12 6 12C6 14 6 15.5 6 16C5 16.5 4 15.8 4 14.5Z" fill="#C4473D"/>
  <path d="M19 12C20 12 20.5 12.8 20.5 13.8C20.5 14.8 20 15.5 19 15.5" fill="#C4473D"/>
  <ellipse cx="14" cy="9.5" rx="2.2" ry="1.4" fill="#C4473D" opacity="0.45" transform="rotate(-10 14 9.5)"/>
</svg>