<svg xmlns="http://www.w3.org/2000/svg" viewBox="0 0 24 24">
  <rect x="1.5" y="1.5" width="21" height="21" fill="#4A3F8F"/>

  <rect x="2.5" y="2.5" width="9.5" height="5.5" fill="#F08A4B"/>
  <rect x="12" y="2.5" width="9.5" height="5.5" fill="#FF4D4F"/>
  <rect x="2.5" y="16" width="9.5" height="5.5" fill="#F08A4B"/>
  <rect x="12" y="16" width="9.5" height="5.5" fill="#FF4D4F"/>

  <rect x="2.5" y="8" width="9.5" height="8" fill="#F9DF2D"/>
  <rect x="12" y="8" width="9.5" height="8" fill="#F6BF2F"/>

  <path d="M5.2 14V10H6.5L7.8 12V10H9V14H7.8L6.4 11.9V14H5.2Z" fill="#3D347E"/>
  <path d="M10 14V10H11.6C12.8 10 13.4 10.7 13.4 12C13.4 13.3 12.8 14 11.6 14H10ZM11.3 12.9H11.6C11.9 12.9 12.1 12.7 12.1 12C12.1 11.3 11.9 11.1 11.6 11.1H11.3V12.9Z" fill="#3D347E"/>
  <path d="M14.2 10H15.5V12.2L16.6 11V10H17.8V11L18.9 12.2V10H20.1V14H18.9L17.2 12.2L15.5 14H14.2V10Z" fill="#3D347E"/>
</svg>
