<svg xmlns="http://www.w3.org/2000/svg" viewBox="0 0 24 24">
  <g transform="rotate(-48 10.5 9.5)">
    <path d="M12 13.2L12.7 22.2L12 23.4L11.3 22.2Z" fill="#B3A1B4"/>

    <ellipse cx="12" cy="12.2" rx="4.2" ry="2.8" fill="#D8584E"/>
    <rect x="10.2" y="6.8" width="3.6" height="6.9" rx="1.3" fill="#D8584E"/>
    <path d="M10.2 7.6C10.2 7.1 10.6 6.8 11.1 6.8H12V13.7H11.1C10.6 13.7 10.2 13.4 10.2 12.9Z" fill="#C4473D"/>

    <ellipse cx="12" cy="6.1" rx="3.5" ry="2.2" fill="#D8584E"/>
    <path d="M8.5 6.1A3.5 2.2 0 0 0 12 8.3V3.9A3.5 2.2 0 0 0 8.5 6.1Z" fill="#C4473D"/>
    <ellipse cx="10.2" cy="5.5" rx="0.8" ry="0.35" fill="#FBDFCB" opacity="0.65"/>
  </g>
</svg>
