<svg xmlns="http://www.w3.org/2000/svg" viewBox="0 0 24 24" aria-label="steak icon">
  <!-- Outer fat edge -->
  <path d="M1.2 13.3C1.1 10.4 2.5 7.8 5 6.2C7.9 4.3 11.4 4.1 14.5 4.7C17.5 5.2 20.3 6.6 21.7 9.2C23 11.6 22.8 14.8 21.5 17.2C20 19.9 17.3 21.7 14.3 22.2C11 22.8 7.6 22 5 20.2C2.7 18.7 1.3 16.1 1.2 13.3Z" fill="#F8C08A"/>

  <!-- Fat seam -->
  <path d="M2.7 13C2.7 10.8 3.8 8.8 5.8 7.5C8.1 6 11.1 5.8 13.9 6.2C16.5 6.6 18.9 7.8 20.1 10.1C21.1 11.9 20.9 14.3 19.9 16.2C18.7 18.4 16.5 19.8 14.1 20.2C11.4 20.7 8.7 20.1 6.6 18.6C5.5 17.9 4.6 17 3.9 16C3.4 15.2 2.7 14.2 2.7 13Z" fill="#EDE5DA"/>

  <!-- Meat center -->
  <path d="M3.6 13C3.7 11.2 4.7 9.7 6.4 8.7C8.3 7.5 10.8 7.3 13.2 7.6C15.5 8 17.6 9 18.6 10.8C19.4 12.2 19.2 14 18.4 15.5C17.4 17.3 15.7 18.4 13.7 18.8C11.5 19.2 9.3 18.7 7.6 17.5C6.7 16.9 6.1 16.2 5.4 15.4C4.8 14.6 4.1 13.9 3.6 13Z" fill="#D8584E"/>

  <!-- Marbling -->
  <path d="M10.2 9.8C11.8 9.7 13.5 10.1 14.7 10.9C15.5 11.4 15.8 12.1 15.5 12.9C15.1 13.8 14.3 14.6 13.4 15.3C12.6 16 11.6 16.8 10.7 16.7C10.2 16.7 10 16.2 10.2 15.6C10.5 14.9 11 14.4 11.2 13.8C11.5 13.1 11.1 12.5 10.4 12.1C9.7 11.7 8.9 11.5 8.2 11.1C7.9 10.9 9.5 9.9 10.2 9.8Z" fill="#F8C08A"/>
  <path d="M7 13.2C7.5 12.7 8.4 12.6 8.9 13.1C9.2 13.5 9.2 14.1 8.9 14.6C8.7 15 8.2 15.2 7.7 15.1C7.2 15 6.8 14.6 6.8 14.1C6.7 13.8 6.8 13.4 7 13.2Z" fill="#F8C08A"/>
  <path d="M8.9 14.2C9.3 13.8 10 13.7 10.4 14.1C10.8 14.5 10.8 15.2 10.5 15.7C10.2 16.2 9.6 16.4 9.1 16.2C8.5 16.1 8.1 15.6 8.2 15C8.2 14.7 8.4 14.4 8.9 14.2Z" fill="#F8C08A"/>
</svg>
