<svg xmlns="http://www.w3.org/2000/svg" viewBox="0 0 24 24" aria-label="steak icon">
  <path d="M4.1 21.6C1.9 19.8 1.3 16.8 1.8 13.3C2.4 8.5 5.4 4.1 9.7 2.5C14.3.8 19.3 2.4 21.4 5.8C23.3 8.8 22.8 13.2 20.4 16.4C18.4 19 15.2 19.2 12.6 19.9C9.5 20.7 7 23.9 4.1 21.6Z" fill="#F8C08A"/>
  <path d="M7 4.9C10.1 3.4 14.2 3.6 17 5.5C19.9 7.5 20.5 11.5 18.4 13.8C16.7 15.8 14.4 15.2 12.3 14.8C10.2 14.4 8.1 14.6 6.4 13.7C4.4 12.7 3.8 10.6 4.9 8.6C5.4 7.4 6.1 5.7 7 4.9Z" fill="#D8584E"/>
  <path d="M4.1 13.7C5.3 12.4 7.2 12 8.7 12.8C10.4 13.8 11.4 15.5 11.8 17.4C12.1 19.1 11.3 20.8 9.8 21.6C8.1 22.5 6 22 4.7 20.7C3.4 19.4 2.8 17.5 2.9 15.7C3 14.9 3.4 14.2 4.1 13.7Z" fill="#D8584E"/>
  <path d="M11.1 14.9C12.6 14.4 14.2 14.3 15.8 14.6C16.9 14.8 17.9 15.2 17.8 15.9C17.8 16.6 16.8 17.1 15.8 17.5C14.3 18.2 12.7 18.7 11 18.6C9.9 18.5 9.1 18.1 9.1 17.4C9 16.6 9.9 15.4 11.1 14.9Z" fill="#EDE5DA"/>
</svg>
