<svg xmlns="http://www.w3.org/2000/svg" viewBox="0 0 24 24" aria-label="steak icon">
  <path d="M2.1 15.2C1.8 12.8 2.8 10.4 4.8 8.8C7.2 6.8 10.3 6.2 13.2 6.4C15.8 6.6 18.4 7.3 20.3 9.1C22.2 10.9 22.6 13.7 21.6 16.1C20.7 18.4 18.9 20.2 16.8 21.2C14.5 22.3 11.8 22.3 9.4 21.5C7.4 20.9 5.7 19.7 4.3 18.2C3.3 17.1 2.4 16.6 2.1 15.2Z" fill="#F8C08A"/>

  <path d="M3.2 13.9C3.2 11.9 4.1 10.1 5.7 8.9C7.5 7.5 10.1 7.1 12.5 7.3C14.9 7.5 17.2 8 18.9 9.5C20.4 10.8 20.8 12.8 20.2 14.7C19.5 16.7 18 18.2 16.2 19C14.4 19.8 12.2 20 10.3 19.4C8.6 18.9 7.3 17.9 6.2 16.7C5.3 15.7 4.3 15.4 3.2 13.9Z" fill="#EDE5DA"/>

  <path d="M4.1 13.6C4.2 12.1 5 10.8 6.3 9.8C7.8 8.7 9.9 8.4 12 8.5C14.1 8.6 16.1 9 17.6 10.3C18.9 11.4 19.3 13 18.8 14.6C18.2 16.2 17 17.4 15.5 18.1C14 18.8 12.2 19 10.6 18.5C9.3 18.1 8.1 17.3 7.2 16.3C6.3 15.3 5.1 15 4.1 13.6Z" fill="#C4473D"/>

  <path d="M10 10.5C11.6 10.3 13.4 10.7 14.8 11.4C15.8 11.9 16.2 12.6 15.7 13.5C15.2 14.4 14.4 15.2 13.4 15.9C12.8 16.3 12.2 16.8 11.5 16.9C11 17 10.8 16.6 11 16.1C11.3 15.3 11.8 14.8 12 14.1C12.2 13.4 11.9 12.8 11.2 12.4C10.5 12 9.7 11.8 9.1 11.3C8.8 11.1 9.4 10.6 10 10.5Z" fill="#F8C08A" opacity="0.9"/>

  <path d="M6.8 13.8C7.6 13.4 8.3 13.8 8.1 14.6" stroke="#F8C08A" stroke-width="0.9" stroke-linecap="round" fill="none" opacity="0.85"/>
  <path d="M8.9 15.2C9.6 14.5 10.4 14.8 10.1 15.8" stroke="#F8C08A" stroke-width="0.9" stroke-linecap="round" fill="none" opacity="0.85"/>
</svg>
