<svg xmlns="http://www.w3.org/2000/svg" viewBox="0 0 24 24" aria-label="steak icon">
  <path d="M4.1 21.6C1.9 19.8 1.3 16.8 1.8 13.3C2.4 8.5 5.4 4.1 9.7 2.5C14.3.8 19.3 2.4 21.4 5.8C23.3 8.8 22.8 13.2 20.4 16.4C18.4 19 15.2 19.2 12.6 19.9C9.5 20.7 7 23.9 4.1 21.6Z" fill="#F8C08A"/>
  <path d="M6.9 7.2C8.4 6 10.7 5.5 13 5.8C15.2 6 17.2 7 18.1 8.8C18.9 10.4 18.9 12.4 18.1 13.9C17.1 15.5 15.5 16.2 13.8 16.1C12.3 16.1 10.8 15.6 9.4 15.3C8.1 15 6.8 15.2 5.9 14.5C5 13.7 4.8 12.3 5 11C5.2 9.7 5.8 8.2 6.9 7.2Z" fill="#D8584E"/>
  <path d="M4.6 15.9C5.4 14.9 6.6 14.1 7.9 14C9.3 13.9 10.6 14.4 11.5 15.3C12.6 16.3 13 17.8 12.8 19.3C12.5 20.7 11.7 21.8 10.5 22.4C9.2 23 7.6 23 6.3 22.5C4.9 22 3.8 20.9 3.4 19.5C3 18.2 3.7 16.9 4.6 15.9Z" fill="#D8584E"/>
  <path d="M10.1 15.7C11.2 15.2 12.8 14.9 14.3 14.9C15.7 14.9 17 15.2 17.8 15.8C18.4 16.3 18.4 16.9 17.9 17.5C17.2 18.3 15.9 18.9 14.5 19.4C13 19.9 11.4 20.1 10.2 19.8C9.2 19.5 8.7 18.9 8.8 18.1C8.9 17.2 9.3 16.2 10.1 15.7Z" fill="#EDE5DA"/>
</svg>
