<svg xmlns="http://www.w3.org/2000/svg" viewBox="0 0 24 24" aria-label="steak icon">
  <path d="M2.2 13.1C2.2 9 5.8 5.7 10.8 5.2C15.9 4.7 20.5 7.1 21.6 11.2C22.6 15.1 20.1 19 15.8 20.1C13.3 20.8 10.5 20.6 8.2 19.6C6.1 18.7 4.5 17.2 3.3 15.5C2.6 14.6 2.2 13.9 2.2 13.1Z" fill="#F8C08A"/>
  <path d="M4 12.8C4 9.6 6.9 7 10.9 6.6C14.9 6.2 18.6 8.1 19.5 11.3C20.3 14.4 18.3 17.5 14.9 18.4C12.9 18.9 10.7 18.8 8.8 18C7.2 17.3 6 16.1 5 14.8C4.4 14.1 4 13.5 4 12.8Z" fill="#EDE5DA"/>
  <path d="M4.9 12.6C4.9 10 7.2 7.9 10.4 7.5C13.8 7.2 16.8 8.7 17.6 11.3C18.2 13.8 16.6 16.3 13.8 17.1C12.2 17.5 10.4 17.4 8.8 16.8C7.5 16.2 6.4 15.2 5.6 14.2C5.2 13.6 4.9 13.1 4.9 12.6Z" fill="#D8584E"/>

  <path d="M10.2 9.8C11.7 9.4 13.6 9.7 14.8 10.6C15.5 11.1 15.8 11.8 15.6 12.5C15.3 13.3 14.6 14.1 13.8 14.8C13.1 15.4 12.1 16.1 11.2 16.3C10.7 16.4 10.2 16.2 10.2 15.7C10.2 15.1 10.6 14.5 10.9 13.9C11.3 13.3 11.2 12.6 10.6 12.1C10 11.6 9.2 11.3 8.5 11C8.1 10.8 9.6 10 10.2 9.8Z" fill="#F8C08A"/>
  <ellipse cx="8.1" cy="13.3" rx="1.2" ry="1.1" fill="#F8C08A"/>
  <ellipse cx="9.5" cy="14.2" rx="1" ry="1" fill="#F8C08A"/>
</svg>
