<svg xmlns="http://www.w3.org/2000/svg" viewBox="0 0 24 24">
  <circle cx="18.5" cy="7" r="2.2" fill="#EDE5DA"/>
  <rect x="15" y="6" width="5" height="2" rx="0.5" fill="#EDE5DA"/>
  <circle cx="14.5" cy="7" r="1.5" fill="#EDE5DA"/>
  <path d="M4.5 11C4.5 8 7 5.5 10 5.5C11.5 5.5 13 6 14 7L15.5 8.5C16.5 10 16.5 12 15.5 13.5C14.5 15.5 12.5 17.5 10.5 18.5C8.5 19.5 6.5 19.5 5.5 18C4.8 17 4.5 15 4.5 13V11Z" fill="#D8584E"/>
  <path d="M7.5 11.5C8.5 11 9.5 12 9 13.5" stroke="#F8C08A" stroke-width="1" stroke-linecap="round" fill="none" opacity="0.8"/>
  <path d="M10.5 14.5C11.5 13.5 12.5 14 12 15.5" stroke="#F8C08A" stroke-width="1" stroke-linecap="round" fill="none" opacity="0.8"/>
</svg>