<svg xmlns="http://www.w3.org/2000/svg" viewBox="0 0 24 24" aria-label="steak icon">
  <path d="M2.2 15.2C2.2 11.3 4.1 7.5 7.4 5C10.5 2.7 14.6 1.9 18 3.1C20.9 4.1 22.2 6.9 22 10.1C21.8 13.4 20.2 16.7 17.6 18.8C15.1 20.8 11.8 21.5 8.8 21.5C6.2 21.5 4 20.8 2.9 19.2C2.4 18.4 2.2 16.7 2.2 15.2Z" fill="#F8C08A"/>
  <path d="M3.4 15C3.4 11.8 4.9 8.7 7.7 6.6C10.4 4.6 14 3.9 16.9 4.9C19.2 5.7 20.3 8 20.1 10.5C20 13.2 18.7 15.9 16.6 17.6C14.5 19.2 11.6 19.9 8.9 19.9C6.7 19.8 4.9 19.2 4 17.9C3.6 17.3 3.4 16.2 3.4 15Z" fill="#C4473D"/>
  <path d="M6.6 8.2C7.6 7.1 9.3 6.5 10.8 6.7C12.1 6.9 13 8.1 13 9.4C13.1 11.2 12.9 13.2 12.3 14.9C11.7 16.3 10.8 17.6 9.4 17.9C8 18.3 6.3 18.1 5.4 17C4.6 16.1 4.6 14.7 4.9 13.5C5.3 11.7 5.5 9.7 6.6 8.2Z" fill="#D8584E"/>
  <path d="M14.8 6.1C15.9 6.1 17 6.6 17.6 7.5C18.2 8.4 18.3 9.5 18.2 10.6C18.1 12.5 17.5 14.4 16.3 15.8C15.2 17.1 13.5 18.1 11.8 17.8C11.2 17.7 10.9 17.1 11.1 16.5C11.4 15.4 12.2 14.5 12.8 13.6C13.5 12.6 13.8 11.5 13.9 10.3C14 9.4 14.2 8.5 14.1 7.6C14 7 14.1 6.4 14.8 6.1Z" fill="#D8584E"/>
  <path d="M12.2 5.4C13.5 5.1 15 5.2 16.1 5.9C16.8 6.4 17.3 7.1 17.3 7.9C17.4 8.9 16.8 9.8 15.9 10C14.9 10.2 13.8 9.8 12.9 9.5C12 9.2 11.4 8.5 11.2 7.6C11 6.8 11.3 5.8 12.2 5.4Z" fill="#D8584E"/>
  <circle cx="13.6" cy="11.2" r="1.2" fill="#EDE5DA"/>
  <circle cx="13.6" cy="11.2" r="0.6" fill="#C4473D"/>
</svg>
