<svg xmlns="http://www.w3.org/2000/svg" viewBox="0 0 24 24" aria-label="steak icon">
  <path d="M2 15.9C2 12.2 3.6 8.2 6.9 5.4C10.2 2.7 14.6 1.9 18.2 3.2C21.3 4.3 22.5 7.3 22.1 10.8C21.8 14.4 19.9 17.8 16.9 19.9C13.9 22 10.1 22.8 6.8 22.4C4.1 22.1 2.6 20.9 2.2 19.2C2 18.4 2 17.1 2 15.9Z" fill="#F8C08A"/>
  <path d="M3.3 15.7C3.3 12.5 4.7 9.1 7.5 6.8C10.2 4.6 13.8 3.9 16.8 4.9C19.2 5.8 20.3 8.2 20.2 11C20 13.8 18.6 16.5 16.3 18.3C14 20 11 20.8 8.2 20.7C5.8 20.6 4.3 19.8 3.7 18.4C3.4 17.8 3.3 16.7 3.3 15.7Z" fill="#C4473D"/>
  <path d="M6 16.5C5.7 15.8 5.7 14.8 5.9 13.7L6.9 9.5C7.7 7.2 9.9 6.2 12.7 6.2C14.5 6.1 16 6.6 16.9 7.7C17.4 8.3 17.7 9 17.8 9.9C17.9 12.3 17.4 14.4 16.4 16C15.5 17.5 14.2 18.5 12.5 18.9C11.6 19.1 10.8 18.8 10.5 18.1L10.2 17.4L9.6 18C9 18.6 8 19.1 6.9 19.2C6.6 19.2 6.3 19.2 6.1 19.1C5.8 18.4 6.2 17.1 6 16.5Z" fill="#D8584E"/>
  <path d="M13 10.9L12.3 14.4L13.8 12.5L14 11.2L13 10.9Z" fill="#C4473D"/>
  <circle cx="13.6" cy="12.1" r="1.25" fill="#EDE5DA"/>
  <circle cx="13.6" cy="12.1" r="0.62" fill="#C4473D"/>
</svg>
