<svg xmlns="http://www.w3.org/2000/svg" viewBox="0 0 24 24" aria-label="steak icon">
  <path d="M6.7 21.8C4.5 21.8 2.9 20.6 2.4 18.8C1.9 17.1 2.7 15.3 4 13.6C5.4 11.8 6.4 9.8 6.3 8.1C6.2 4.7 9.1 2.2 12.7 2.2C16.9 2.2 20.6 5.4 21.5 9.5C22.1 12.6 20.9 15.6 18.8 17.7C16.6 19.9 13.5 21.2 10.5 21.6C9.2 21.8 7.8 21.8 6.7 21.8Z" fill="#F8C08A"/>
  <path d="M7.7 20.6C5.9 20.6 4.6 19.7 4.2 18.4C3.9 17.2 4.5 15.8 5.6 14.4C7 12.6 8 10.4 8 8.5C7.9 5.7 10.2 3.7 13 3.8C16.3 3.8 19.2 6.3 19.8 9.5C20.3 12 19.3 14.5 17.5 16.3C15.7 18 13 19.2 10.5 19.8C9.5 20.3 8.5 20.6 7.7 20.6Z" fill="#C4473D"/>
  <path d="M7.8 13.9C9 12.8 10.9 12.7 12.7 13.1C13.9 13.4 15.1 14.1 15.6 15.1C15.8 15.6 15.5 16.1 15 16.5C14 17.2 12.7 17.8 11.4 18.3C10.2 18.7 9 19 7.9 18.9C7.1 18.8 6.4 18.4 6.1 17.8C5.6 16.9 6 15.9 6.5 15.2C6.8 14.7 7.2 14.2 7.8 13.9Z" fill="#D8584E"/>
  <path d="M12.8 14.3C13.5 13.1 14.6 12 15.4 10.9C16.1 9.8 16.5 8.4 16.1 7.2C15.7 5.9 14.4 5.1 13.1 5.1C11.7 5.1 10.5 6.1 10.5 7.4C10.5 9.2 11.1 10.8 11.9 12.3C12.2 12.8 12.4 13.3 12.6 13.8C12.7 14 12.8 14.2 12.8 14.3Z" fill="#D8584E"/>
  <circle cx="14" cy="8.7" r="1.45" fill="#F8C08A"/>
  <circle cx="14" cy="8.7" r="0.85" fill="#EDE5DA"/>
</svg>
