<svg xmlns="http://www.w3.org/2000/svg" viewBox="0 0 24 24" aria-label="steak icon">
  <path d="M4.1 21.6C1.9 19.8 1.3 16.8 1.8 13.3C2.4 8.5 5.4 4.1 9.7 2.5C14.3.8 19.3 2.4 21.4 5.8C23.3 8.8 22.8 13.2 20.4 16.4C18.4 19 15.2 19.2 12.6 19.9C9.5 20.7 7 23.9 4.1 21.6Z" fill="#F8C08A"/>
  <path d="M6.1 6.8C7.6 5.4 10.2 4.8 12.7 5.1C15.3 5.5 17.6 6.7 18.5 8.9C19.4 10.8 19 13.1 17.7 14.5C16.4 15.8 14.7 15.9 13.1 15.5C11.3 15.1 9.7 14.9 8.1 15.1C6.9 15.2 5.7 14.7 5.2 13.6C4.6 12.5 4.7 11.1 5.2 9.9C5.4 8.8 5.6 7.5 6.1 6.8Z" fill="#D8584E"/>
  <path d="M4.5 14.7C5.4 13.8 6.6 13.3 7.8 13.5C9.2 13.7 10.4 14.7 11.1 15.9C11.9 17.1 12.3 18.5 12 19.8C11.8 21 10.9 22 9.7 22.4C8.4 22.9 6.8 22.6 5.6 21.8C4.3 20.9 3.4 19.6 3.1 18.1C2.9 16.8 3.5 15.5 4.5 14.7Z" fill="#D8584E"/>
  <path d="M10.1 15.4C11.2 14.8 12.7 14.5 14.2 14.5C15.6 14.5 16.9 14.8 17.7 15.4C18.4 15.9 18.4 16.5 17.9 17.1C17.2 17.9 15.9 18.5 14.5 19C13 19.5 11.4 19.7 10.2 19.4C9.2 19.1 8.7 18.4 8.8 17.7C8.9 16.8 9.3 15.9 10.1 15.4Z" fill="#EDE5DA"/>
</svg>
