<svg xmlns="http://www.w3.org/2000/svg" viewBox="0 0 24 24">
  <g transform="translate(12,8.5)">
    <ellipse cx="0" cy="-3.8" rx="1.3" ry="2.7" fill="#F59E0B"/>
    <ellipse cx="0" cy="-3.8" rx="1.3" ry="2.7" fill="#F59E0B" transform="rotate(30)"/>
    <ellipse cx="0" cy="-3.8" rx="1.3" ry="2.7" fill="#F59E0B" transform="rotate(60)"/>
    <ellipse cx="0" cy="-3.8" rx="1.3" ry="2.7" fill="#F59E0B" transform="rotate(90)"/>
    <ellipse cx="0" cy="-3.8" rx="1.3" ry="2.7" fill="#F59E0B" transform="rotate(120)"/>
    <ellipse cx="0" cy="-3.8" rx="1.3" ry="2.7" fill="#F59E0B" transform="rotate(150)"/>
    <ellipse cx="0" cy="-3.8" rx="1.3" ry="2.7" fill="#F59E0B" transform="rotate(180)"/>
    <ellipse cx="0" cy="-3.8" rx="1.3" ry="2.7" fill="#F59E0B" transform="rotate(210)"/>
    <ellipse cx="0" cy="-3.8" rx="1.3" ry="2.7" fill="#F59E0B" transform="rotate(240)"/>
    <ellipse cx="0" cy="-3.8" rx="1.3" ry="2.7" fill="#F59E0B" transform="rotate(270)"/>
    <ellipse cx="0" cy="-3.8" rx="1.3" ry="2.7" fill="#F59E0B" transform="rotate(300)"/>
    <ellipse cx="0" cy="-3.8" rx="1.3" ry="2.7" fill="#F59E0B" transform="rotate(330)"/>

    <circle cx="0" cy="0" r="3.1" fill="#92400E"/>
    <path d="M0 -3.1A3.1 3.1 0 0 1 2.6 1.6A2.8 2.8 0 0 0 0 -2.8Z" fill="#6B2C0C"/>
    <ellipse cx="-1.1" cy="-1.2" rx="1" ry="0.45" fill="#B45309" opacity="0.65"/>
  </g>

  <rect x="11.7" y="11.1" width="0.6" height="7.3" rx="0.3" fill="#5D8A3D"/>
  <path d="M11.7 14.8C10.1 13.9 8.5 13.9 7 14.4C7 16.7 8.7 17.8 10.5 17.5C11.2 17.4 11.8 17 12.2 16.5Z" fill="#6EA04B"/>
  <path d="M12.3 15.3C13.5 14.3 15.2 14.1 17.1 14.8C17.1 17 15.4 18.2 13.6 18C13.1 17.9 12.6 17.5 12.1 16.9Z" fill="#6A9444"/>
</svg>
