<svg xmlns="http://www.w3.org/2000/svg" viewBox="0 0 24 24">
  <circle cx="10" cy="13" r="7.2" fill="#D8584E"/>
  <path d="M10 5.8A7.2 7.2 0 0 1 16.6 16.1L14.9 15.1A5.3 5.3 0 0 0 10 7.7Z" fill="#C4473D"/>
  <circle cx="10" cy="13" r="4.4" fill="#FFFAF5"/>
  <circle cx="10" cy="13" r="2.2" fill="#D8584E"/>
  <circle cx="10" cy="13" r="1" fill="#596088"/>

  <path d="M10 13L17.8 5.2" stroke="#B3A1B4" stroke-width="0.9" stroke-linecap="round"/>
  <path d="M17.2 4.7L18.9 2.9L18.7 5.5Z" fill="#596088"/>
  <path d="M17.8 5.3L18.3 4.8L19.1 5.5L18.6 5.9Z" fill="#596088"/>
  <path d="M17.8 5.6L20.8 5.6L19 7.8L16.8 7.7Z" fill="#80B9B9"/>
  <path d="M18 4.7L18.1 2L20.4 4.4L19.7 5.6Z" fill="#A29BFE"/>
  <path d="M19.8 4.3L20.3 3.3L20.2 5.6Z" fill="#596088"/>
</svg>
